<?xml version="1.0" encoding="utf-8"?>
<!-- Generator: Adobe Illustrator 16.0.0, SVG Export Plug-In . SVG Version: 6.00 Build 0)  -->
<!DOCTYPE svg PUBLIC "-//W3C//DTD SVG 1.1//EN" "http://www.w3.org/Graphics/SVG/1.1/DTD/svg11.dtd">
<svg version="1.1" id="Layer_1" xmlns="http://www.w3.org/2000/svg" xmlns:xlink="http://www.w3.org/1999/xlink" x="0px" y="0px"
	 width="444.899px" height="352.482px" viewBox="0 0 444.899 352.482" enable-background="new 0 0 444.899 352.482"
	 xml:space="preserve">
<g>
	<g>
		<g>
			<path fill="#FFFFFF" d="M165.83,333.935c1.692,1.69,4.094,2.647,5.921,4.1c1.867,1.484,3.444,3.441,5.431,4.677
				c2.02,1.256,4.109,2.576,6.231,3.576c2.146,1.013,4.915,0.542,7.142,1.294c2.244,0.758,4.498,1.232,6.801,1.728
				c2.312,0.497,4.436,2.268,6.783,2.501c2.351,0.233,4.79,0.361,7.151,0.332c2.362,0.033,4.666-1.479,7.018-1.712
				c2.349-0.231,4.902,0.736,7.216,0.239c2.303-0.495,4.543-1.505,6.789-2.264c2.228-0.753,4.004-2.619,6.151-3.632
				c2.122-1.002,4.466-1.551,6.486-2.808c1.988-1.236,4.157-2.286,6.025-3.771c1.828-1.452,4.134-2.534,5.827-4.225
				c2.553-2.543,1.221-3.881,3.775-6.422c2.553-2.54,3.021-2.07,5.573-4.61c2.554-2.54,3.128-1.963,5.682-4.503
				c2.555-2.542,1.734-3.367,4.289-5.909c2.553-2.54,3.007-2.084,5.56-4.624c2.555-2.542,1.895-3.205,4.449-5.747
				c2.555-2.541,2.56-2.536,5.113-5.077c2.555-2.542,3.052-2.042,5.606-4.583c2.555-2.542,2.396-2.701,4.95-5.242
				c2.555-2.542,2.254-2.846,4.809-5.388c2.555-2.541,3.804-1.285,6.358-3.826c2.556-2.543,2.438-2.66,4.994-5.202
				s2.259-2.841,4.813-5.383c2.556-2.542,2.202-2.897,4.758-5.439c2.553-2.539,3.281-1.806,5.834-4.346
				c2.556-2.542,1.895-3.207,4.449-5.749c2.554-2.54,3.021-2.071,5.574-4.612c2.555-2.541,2.646-2.449,5.2-4.991
				c2.557-2.543,2.314-2.785,4.871-5.329c2.556-2.542,1.527-3.576,4.083-6.119s3.867-1.226,6.423-3.769
				c2.557-2.543,1.475-3.631,4.031-6.174c2.555-2.543,3.21-1.885,5.765-4.427c2.558-2.544,1.829-3.276,4.387-5.821
				c2.559-2.546,3.465-1.636,6.023-4.183c2.56-2.546,2.303-2.804,4.859-5.352c1.741-1.741,3.293-3.645,4.901-5.465
				c1.628-1.844,3.397-3.562,4.89-5.48c1.509-1.94,2.218-4.434,3.588-6.444c1.383-2.03,3.2-3.746,4.441-5.841
				c1.251-2.112,3.336-3.79,4.442-5.96c1.114-2.185,1.447-4.772,2.414-7.01c0.974-2.25,2.071-4.465,2.896-6.76
				c0.829-2.306,0.994-4.829,1.673-7.172c0.682-2.353,0.698-4.838,1.229-7.221c0.531-2.39,0.791-4.771,1.171-7.183
				c0.381-2.417,0.806-4.768,1.034-7.201c0.229-2.435,1.598-4.782,1.674-7.225c0.076-2.444-0.494-4.892-0.57-7.336
				c-0.077-2.443-0.108-4.88-0.337-7.315c-0.229-2.433,0.39-4.997,0.009-7.414c-0.38-2.412-2.572-4.481-3.104-6.87
				c-0.53-2.383,0.596-5.191-0.085-7.544c-0.679-2.344-2.841-4.22-3.669-6.525c-0.824-2.295-1.378-4.674-2.351-6.924
				c-0.968-2.237-2.645-4.105-3.759-6.29c-1.105-2.17-0.611-5.229-1.862-7.341c-1.24-2.094-2.465-4.287-3.848-6.317
				c-1.369-2.01-3.833-3.272-5.342-5.213c-1.492-1.919-3.122-3.724-4.751-5.567c-1.607-1.821-2.809-4.049-4.55-5.791
				c-1.74-1.74-4.088-2.805-5.908-4.413c-1.843-1.628-3.16-3.864-5.078-5.356c-1.94-1.508-4.516-2.113-6.525-3.482
				c-2.029-1.382-4.069-2.656-6.163-3.896c-2.111-1.25-3.445-3.922-5.614-5.028c-2.186-1.114-5.188-0.495-7.424-1.462
				c-2.25-0.972-4.415-2.026-6.709-2.851c-2.306-0.828-4.385-2.295-6.729-2.973c-2.352-0.681-4.773-1.09-7.155-1.621
				c-2.389-0.531-4.621-2.042-7.033-2.421c-2.416-0.381-4.945-0.269-7.377-0.497c-2.435-0.229-4.953,0.936-7.396,0.86
				c-2.443-0.077-4.885-1.457-7.328-1.38c-2.442,0.076-4.899,0.478-7.334,0.707c-2.432,0.229-4.978-0.065-7.394,0.316
				c-2.412,0.38-4.836,1.028-7.225,1.56c-2.382,0.53-4.565,1.962-6.917,2.643c-2.343,0.679-4.915,0.741-7.221,1.569
				c-2.294,0.824-4.218,2.644-6.467,3.616c-2.237,0.967-4.89,1.105-7.074,2.219c-2.17,1.106-4.419,2.193-6.529,3.443
				c-2.095,1.24-3.426,3.723-5.455,5.105c-2.01,1.369-3.867,2.906-5.807,4.414c-1.919,1.492-4.377,2.335-6.221,3.963
				c-1.82,1.608-2.884,4.028-4.624,5.769c-2.949,2.916-3.809,2.045-6.764,4.956s-1.469,7.152-5.616,7.152
				c-4.124,0-2.313-4.555-5.235-7.465s-3.126-2.705-6.047-5.616c-1.74-1.74-4.438-2.428-6.258-4.036
				c-1.843-1.628-3.043-3.987-4.962-5.479c-1.94-1.509-3.539-3.535-5.549-4.904c-2.029-1.382-4.743-1.717-6.837-2.957
				c-2.111-1.25-3.702-3.484-5.872-4.589c-2.185-1.114-4.45-2.19-6.687-3.157c-2.25-0.972-5.248-0.041-7.543-0.865
				c-2.305-0.828-4.508-1.789-6.852-2.467c-2.352-0.681-4.578-1.713-6.961-2.243c-2.389-0.532-4.593-2.127-7.005-2.507
				c-2.417-0.38-4.931-0.329-7.363-0.558c-2.434-0.229-4.954,1.132-7.396,1.056c-2.443-0.077-4.888-2.062-7.331-1.985
				c-2.442,0.076-4.936,0.312-7.371,0.542c-2.432,0.229-4.706,1.863-7.122,2.244c-2.412,0.38-4.972-0.002-7.36,0.529
				c-2.382,0.53-4.412,2.402-6.764,3.083c-2.343,0.678-4.723,1.115-7.028,1.943c-2.294,0.824-4.849,0.982-7.098,1.955
				c-2.236,0.967-4.028,2.862-6.213,3.976c-2.169,1.105-4.92,1.164-7.032,2.415c-2.094,1.239-3.845,3.069-5.875,4.452
				c-2.01,1.369-3.7,3.169-5.639,4.677c-1.918,1.492-4.772,1.902-6.616,3.53c-1.82,1.607-3.352,3.617-5.092,5.357
				c-1.741,1.741-3.198,3.761-4.806,5.581c-1.629,1.843-2.423,4.34-3.916,6.259c-1.509,1.94-3.782,3.293-5.151,5.304
				c-1.383,2.03-3.134,3.855-4.375,5.95c-1.251,2.112-0.905,5.088-2.012,7.258c-1.114,2.186-2.216,4.307-3.184,6.543
				c-0.973,2.25-3.268,3.966-4.093,6.261c-0.829,2.306-0.91,4.871-1.588,7.214c-0.681,2.352-1.503,4.67-2.034,7.052
				c-0.532,2.389-1.752,4.682-2.132,7.094c-0.381,2.417-0.002,4.966-0.23,7.399c-0.229,2.435-1.061,4.869-1.137,7.312
				c-0.077,2.444,1.285,4.904,1.361,7.348c0.076,2.442-0.337,4.909-0.108,7.344c0.229,2.432,1.356,4.737,1.737,7.154
				c0.38,2.412-0.464,5.059,0.068,7.448c0.53,2.383,2.629,4.36,3.311,6.711c0.679,2.344,0.78,4.843,1.609,7.148
				c0.825,2.295,1.688,4.567,2.661,6.817c0.967,2.237,2.636,4.113,3.75,6.298c1.106,2.17,1.267,4.846,2.518,6.958
				c1.241,2.094,2.402,4.276,3.785,6.307c1.37,2.01,3.736,3.297,5.245,5.237c1.492,1.919,2.019,4.653,3.648,6.496
				c1.608,1.82,3.292,3.642,5.033,5.383c2.524,2.539,3.077,1.99,5.598,4.532c2.521,2.54,1.89,3.166,4.41,5.707
				c2.521,2.541,3.429,1.64,5.95,4.181c2.522,2.542,2.463,2.601,4.985,5.142c2.521,2.541,2.055,3.004,4.576,5.545
				c2.522,2.543,2.521,2.544,5.043,5.086c2.521,2.541,2.302,2.759,4.823,5.301c2.522,2.541,3.587,1.484,6.108,4.026
				c2.522,2.542,2.222,2.839,4.744,5.381c2.522,2.543,2.791,2.276,5.313,4.818c2.522,2.542,1.78,3.278,4.301,5.82
				c2.522,2.542,2.035,3.025,4.558,5.568c2.523,2.543,2.465,2.601,4.988,5.144c2.522,2.542,2.505,2.56,5.027,5.102
				c2.52,2.541,2.643,2.418,5.163,4.958c2.522,2.543,2.821,2.247,5.343,4.79c2.521,2.541,2.52,2.542,5.041,5.083
				c2.522,2.542,2.88,2.188,5.402,4.729c2.523,2.543,2.8,2.269,5.323,4.812c2.523,2.544,2.833,2.236,5.356,4.779
				c2.523,2.544,2.037,3.025,4.56,5.569c2.524,2.543,2.39,2.676,4.914,5.22c2.523,2.543,2.127,2.936,4.65,5.479
				c2.524,2.545,2.629,2.44,5.154,4.985c2.527,2.547,2.836,2.244,5.114,5.015C163.689,331.028,163.301,331.391,165.83,333.935z"/>
		</g>
	</g>
</g>
<g>
	<g>
		<path fill="#CA492A" d="M177.837,83.938c-1.65,0-2.811-0.997-2.811-2.647c0-4.784,0.191-4.784,0.191-9.567
			c0-1.65-1.731-2.75-3.381-2.75c-4.005,0-4.005-0.469-8.01-0.469s-4.005,0.555-8.01,0.555c-1.65,0-2.731,1.018-2.751,2.668
			c-0.062,5.246,0.071,5.248,0.008,10.494c-0.02,1.65-1.804,2.913-3.454,2.913c-4.632,0-4.632,0.159-9.265,0.159
			c-1.65,0-3.157,1.079-3.157,2.49c0,1.411,1.446,3.016,2.905,3.787c3.023,1.597,2.726,2.159,5.749,3.756
			c1.459,0.771,2.586,2.369,2.586,4.019c0,3.636,0.503,3.636,0.503,7.272c0,3.635-0.654,3.635-0.654,7.27
			c0,3.636,0.205,3.636,0.205,7.271s0.125,3.636,0.125,7.271c0,3.636-0.222,3.636-0.222,7.273c0,3.636,0.048,3.636,0.048,7.271
			c0,3.637,0.174,3.637,0.174,7.273c0,3.638-0.276,3.638-0.276,7.275c0,3.637,0.767,3.637,0.767,7.273
			c0,3.637-0.082,3.637-0.082,7.274s0.01,3.637,0.01,7.274s-0.13,3.638-0.13,7.275c0,3.636,0.144,3.636,0.144,7.271
			c0,3.637,0.027,3.637,0.027,7.274c0,3.637-0.646,3.637-0.646,7.273c0,3.638,0.262,3.638,0.262,7.274
			c0,3.638-0.136,3.638-0.136,7.275c0,3.64,0.09,3.64,0.09,7.279c0,3.638,0.092,3.638,0.092,7.275c0,3.641-0.229,3.641-0.229,7.281
			s0.275,3.641,0.275,7.281c0,1.65,1.271,3.138,2.921,3.138c3.948,0,3.948-0.274,7.896-0.274c3.949,0,3.949,0.419,7.898,0.419
			c3.948,0,3.948-0.066,7.896-0.066c3.951,0,3.951-0.624,7.901-0.624s3.951,0.525,7.901,0.525c1.65,0,2.588-1.467,2.588-3.117
			c0-3.584,0.33-3.584,0.33-7.168s0.073-3.584,0.073-7.169s-0.097-3.585-0.097-7.17c0-3.583-0.17-3.583-0.17-7.166
			c0-3.587-0.088-3.587-0.088-7.173c0-3.588-0.018-3.588-0.018-7.177s0.619-3.589,0.619-7.178c0-1.65,1.113-3.355,2.763-3.355
			c3.227,0,3.227,0.649,6.455,0.649c3.23,0,3.23,0.041,6.46,0.041c3.232,0,3.232-0.42,6.464-0.42s3.232,0.132,6.465,0.132
			c1.65,0,2.964,1.303,2.964,2.953c0,3.584,0.435,3.584,0.435,7.168c0,3.585-0.333,3.585-0.333,7.169
			c0,3.585-0.367,3.585-0.367,7.17c0,3.583,0.048,3.583,0.048,7.166c0,3.586,0.24,3.586,0.24,7.173c0,3.589-0.254,3.589-0.254,7.177
			c0,3.589,0.705,3.589,0.705,7.178c0,1.65,0.912,3.321,2.562,3.321c3.564,0,3.564-0.108,7.129-0.108
			c3.566,0,3.566-0.379,7.132-0.379c3.563,0,3.563,0.298,7.127,0.298c3.567,0,3.567,0.09,7.134,0.09
			c3.568,0,3.568,0.238,7.138,0.238s3.569-0.405,7.139-0.405c1.65,0,2.56-1.404,2.56-3.055c0-3.647,0.423-3.647,0.423-7.295
			c0-3.646-0.21-3.646-0.21-7.294s-0.053-3.647-0.053-7.295s0.612-3.647,0.612-7.294c0-3.648-0.144-3.648-0.144-7.296
			s0.025-3.647,0.025-7.295c0-3.648-0.089-3.648-0.089-7.297c0-3.649,0.181-3.649,0.181-7.298s-0.361-3.648-0.361-7.296
			c0-3.648-0.051-3.648-0.051-7.297c0-3.649-0.062-3.649-0.062-7.298c0-3.649,0.375-3.649,0.375-7.299
			c0-3.647,0.071-3.647,0.071-7.294c0-3.648-0.698-3.648-0.698-7.297s0.299-3.648,0.299-7.297s-0.14-3.648-0.14-7.297
			c0-3.649,0.311-3.649,0.311-7.299c0-3.651-0.217-3.651-0.217-7.302c0-3.65-0.121-3.65-0.121-7.299
			c0-3.652,0.276-3.652,0.276-7.304s-0.188-3.652-0.188-7.304c0-1.65,1.202-3.998,2.667-4.757c2.846-1.476,3.05-1.082,5.896-2.557
			c1.465-0.759,3.078-2.716,3.078-4.327s-1.773-2.609-3.424-2.609c-3.5,0-3.5-0.357-7-0.357c-3.501,0-3.501-0.153-7.001-0.153
			s-3.5,0.376-6.999,0.376c-3.5,0-3.5-0.558-7-0.558c-3.501,0-3.501,0.543-7.001,0.543c-3.501,0-3.501-0.225-7.002-0.225
			c-3.498,0-3.498,0.443-6.997,0.443c-3.5,0-3.5-0.047-7-0.047s-3.5-0.33-7-0.33s-3.5-0.154-7-0.154
			c-3.501,0-3.501-0.311-7.002-0.311c-3.499,0-3.499,0.373-6.998,0.373c-3.502,0-3.502-0.015-7.004-0.015
			c-3.504,0-3.51,0.328-7.013,0.21C181.333,84.288,181.341,83.938,177.837,83.938z M193.354,160.984c0,1.65-0.997,2.811-2.647,2.811
			c-3.201,0-3.201-0.191-6.402-0.191c-3.204,0-3.204,0.63-6.408,0.63c-3.207,0-3.207-0.469-6.413-0.469s-3.206,0.555-6.412,0.555
			c-1.65,0-3.285-1.686-3.285-3.335c0-3.624-0.134-3.624-0.134-7.247c0-3.625,0.501-3.625,0.501-7.25
			c0-3.624-0.159-3.624-0.159-7.247c0-3.626,0.233-3.626,0.233-7.252s-0.361-3.626-0.361-7.252c0-1.65,1.554-2.568,3.204-2.568
			c3.201,0,3.201-0.163,6.402-0.163c3.204,0,3.204-0.503,6.408-0.503c3.207,0,3.207,0.654,6.413,0.654s3.206-0.205,6.412-0.205
			c1.65,0,2.91,1.135,2.91,2.785c0,3.624-0.222,3.624-0.222,7.247c0,3.625,0.048,3.625,0.048,7.25c0,3.624,0.174,3.624,0.174,7.247
			c0,3.626-0.158,3.616-0.276,7.241C193.223,157.351,193.354,157.358,193.354,160.984z M257.618,160.984
			c0,1.65-0.997,2.811-2.647,2.811c-3.202,0-3.202-0.191-6.403-0.191c-3.204,0-3.204,0.63-6.408,0.63
			c-3.207,0-3.207-0.469-6.413-0.469s-3.206,0.555-6.413,0.555c-1.65,0-3.285-1.686-3.285-3.335c0-3.624-0.134-3.624-0.134-7.247
			c0-3.625,0.502-3.625,0.502-7.25c0-3.624-0.159-3.624-0.159-7.247c0-3.626,0.233-3.626,0.233-7.252s-0.36-3.626-0.36-7.252
			c0-1.65,1.553-2.568,3.203-2.568c3.201,0,3.201-0.163,6.403-0.163c3.204,0,3.204-0.503,6.408-0.503
			c3.206,0,3.206,0.654,6.413,0.654s3.207-0.205,6.413-0.205c1.65,0,2.91,1.135,2.91,2.785c0,3.624-0.223,3.624-0.223,7.247
			c0,3.625,0.049,3.625,0.049,7.25c0,3.624,0.175,3.624,0.175,7.247c0,3.626-0.159,3.616-0.276,7.241
			C257.487,157.351,257.618,157.358,257.618,160.984z"/>
	</g>
</g>
</svg>
